<svg width="53" height="53" viewBox="0 0 53 53" fill="none" xmlns="http://www.w3.org/2000/svg">
<g clip-path="url(#clip0)">
<path d="M38.6727 28.5113C37.025 28.8428 35.3536 28.9017 33.715 28.686C32.9105 28.5721 32.0359 29.001 31.6754 29.5804L29.1248 32.5523C25.2256 31.3205 22.6141 29.5199 20.0415 26.2886L21.6452 22.7937C22.1015 22.0827 22.1333 21.1719 21.7216 20.406C20.892 18.9141 20.297 17.2933 19.9539 15.588C19.7062 14.3562 18.5358 13.5489 17.345 13.7885L12.4027 14.7828C11.2119 15.0224 10.4448 16.2195 10.6926 17.4513C13.5334 31.5709 26.9484 40.8237 40.5974 38.0776C41.7881 37.8381 42.5553 36.641 42.3074 35.4092L41.2817 30.3107C41.0338 29.079 39.8634 28.2717 38.6727 28.5113Z" fill="black"/>
</g>
<circle cx="26.4995" cy="26.4302" r="23.9302" stroke="black" stroke-width="5"/>
<defs>
<clipPath id="clip0">
<rect width="27.4517" height="28.3983" fill="white" transform="translate(10.2432 15.2173) rotate(-11.3755)"/>
</clipPath>
</defs>
</svg>
